<?xml version="1.0" encoding="UTF-8" standalone="no"?>
<svg
   xmlns:dc="http://purl.org/dc/elements/1.1/"
   xmlns:cc="http://creativecommons.org/ns#"
   xmlns:rdf="http://www.w3.org/1999/02/22-rdf-syntax-ns#"
   xmlns:svg="http://www.w3.org/2000/svg"
   xmlns="http://www.w3.org/2000/svg"
   xmlns:sodipodi="http://sodipodi.sourceforge.net/DTD/sodipodi-0.dtd"
   xmlns:inkscape="http://www.inkscape.org/namespaces/inkscape"
   sodipodi:docname="Rocko-Pet_Logo_favicon_V2.svg"
   inkscape:version="1.0 (4035a4fb49, 2020-05-01)"
   id="svg8"
   version="1.1"
   viewBox="0 0 78.077377 78.077377"
   height="78.077377mm"
   width="78.077377mm">
  <defs
     id="defs2" />
  <sodipodi:namedview
     inkscape:window-maximized="1"
     inkscape:window-y="-9"
     inkscape:window-x="1591"
     inkscape:window-height="1001"
     inkscape:window-width="1920"
     showgrid="false"
     inkscape:document-rotation="0"
     inkscape:current-layer="layer1"
     inkscape:document-units="mm"
     inkscape:cy="142.91478"
     inkscape:cx="9.3034132"
     inkscape:zoom="0.7"
     inkscape:pageshadow="2"
     inkscape:pageopacity="0.0"
     borderopacity="1.0"
     bordercolor="#666666"
     pagecolor="#ffffff"
     id="base" />
  <metadata
     id="metadata5">
    <rdf:RDF>
      <cc:Work
         rdf:about="">
        <dc:format>image/svg+xml</dc:format>
        <dc:type
           rdf:resource="http://purl.org/dc/dcmitype/StillImage" />
        <dc:title></dc:title>
      </cc:Work>
    </rdf:RDF>
  </metadata>
  <g
     transform="translate(-56.967266,-115.17559)"
     id="layer1"
     inkscape:groupmode="layer"
     inkscape:label="Layer 1">
    <rect
       y="9.3422575"
       x="196.0625"
       height="78.077377"
       width="78.077377"
       id="rect841"
       style="fill:#ffffff;fill-opacity:0;stroke-width:1.91115;stroke-linejoin:round" />
    <path
       inkscape:export-ydpi="141"
       inkscape:export-xdpi="141"
       sodipodi:nodetypes="ccsccscscszzcsscsssccs"
       style="font-style:normal;font-weight:normal;font-size:10.5833px;line-height:1.25;font-family:sans-serif;white-space:pre;shape-inside:url(#rect913-5);fill:#d80b1e;fill-opacity:1;stroke:#d80b1e;stroke-width:1.71064;stroke-linecap:square;stroke-linejoin:miter;stroke-miterlimit:4;stroke-dasharray:none;stroke-opacity:1;paint-order:markers fill stroke"
       d="m 232.72785,75.699167 c -3.71126,-0.73468 -3.40455,-1.30673 0.84574,-2.42364 7.33441,-1.68931 16.3915,-10.17396 19.0621,-18.92296 4.00349,-13.11557 0.41746,-17.02821 3.28314,-19.82916 2.13306,1.96384 2.44101,12.64447 0.94238,19.46718 -0.36205,1.88586 -1.18846,4.47118 -2.3677,7.31697 -3.35891,8.10538 -10.74322,13.43682 -17.73978,14.48536 -1.34228,0.14354 -2.30969,0.24617 -4.02588,-0.0938 z m -9.21357,0.16936 c -4.34114,-1.80874 -8.71389,-7.5577 -10.20777,-13.42036 -0.99153,-3.89092 -1.17792,-9.92867 -0.43499,-14.09202 0.72117,-4.04186 2.78257,-10.57312 5.88533,-14.69668 3.10281,-4.12349 5.90875,-7.33573 10.4993,-9.86294 7.17632,-3.9507 18.13181,-5.12827 24.20208,1.54806 1.50747,1.65804 2.26385,3.398 1.50439,3.46071 -0.1681,0.0157 -2.91507,0.36337 -4.4511,-0.87719 -10.93918,-8.83468 -24.50057,-2.48197 -31.49254,14.8465 -2.10138,5.20788 -2.92008,11.25445 -2.37091,16.72833 0.60501,6.03014 1.94854,9.1667 6.75055,13.70815 2.56568,1.90677 2.60427,3.69439 0.11648,2.65741 z"
       id="path841-8-7-4-0"
       inkscape:connector-curvature="0" />
    <rect
       style="fill:#fcf9ff;fill-opacity:0;stroke:none;stroke-width:0.484751;stroke-linecap:square;stroke-linejoin:miter;stroke-miterlimit:4;stroke-dasharray:none;stroke-opacity:1;paint-order:markers fill stroke"
       id="rect1355"
       width="77.566818"
       height="77.566818"
       x="57.222546"
       y="115.43087" />
    <g
       id="g1092"
       transform="matrix(1.2882794,0,0,1.2882794,131.51316,133.04871)">
      <g
         transform="translate(-14.887603,-24.812672)"
         id="g1086">
        <path
           inkscape:export-ydpi="141"
           inkscape:export-xdpi="141"
           style="fill:#a085b1;fill-opacity:1;stroke-width:0.0458274"
           d="m -33.939239,49.378041 c -0.29911,-0.119778 -0.42275,-0.201162 -0.47791,-0.31459 -0.0556,-0.114433 -0.0549,-0.14656 0.006,-0.258065 0.12299,-0.224095 0.55344,-0.452474 1.2506,-0.663488 0.52429,-0.158708 0.87549,-0.520707 2.12655,-2.191955 0.69625,-0.930077 0.84239,-1.066918 1.35912,-1.272585 3.529662,-1.816352 3.068286,-1.986225 4.636258,-3.192768 0.388275,-0.387963 0.489746,-0.590836 0.647556,-0.839164 0.766672,-2.028229 1.598075,-2.985236 2.312048,-3.766644 0.309343,-0.101253 1.15595,-0.0798 1.674306,0.04249 l 0.412322,0.09726 0.782456,-0.214566 c 1.562684,-0.428526 2.392366,-0.583805 3.820348,-0.714984 3.5444,-0.325607 4.775744,-0.473728 5.7390631,-0.690327 0.54938,-0.123538 0.807605,-0.213563 1.765335,-0.615495 1.9867285,-0.833764 2.4364085,-0.939636 4.2459655,-0.999653 0.74081,-0.02459 1.130919,-0.01496 1.756343,0.04322 l 0.8039979,0.07481 0.80845305,-0.208823 C 1.4088466,33.258956 2.1460576,33.167428 3.2806385,33.251828 l 0.629161,0.04681 0.0036,-0.144895 c 0.0027,-0.105562 -0.04527,-0.200537 -0.176198,-0.349853 -0.157881,-0.180003 -0.171402,-0.212928 -0.111005,-0.270416 0.0996,-0.09479 0.396452,-0.122372 0.673966,-0.0626 0.3714901,0.08 0.7009351,0.263435 0.9859021,0.549034 0.154053,0.154377 0.300951,0.26144 0.360748,0.262915 0.192621,0.0048 0.806117,0.164514 1.263326,0.328977 0.672252,0.241843 0.862156,0.3822 1.20569,0.891235 0.649552,0.962489 0.602971,0.919082 1.4952313,1.393276 0.4412991,0.234534 0.9576041,0.495453 1.1473271,0.579833 0.616289,0.274067 0.662307,0.43823 0.241585,0.861657 -0.286726,0.288571 -0.526172,0.403404 -0.908873,0.435896 -0.1579201,0.01333 -0.2873931,0.03587 -0.2877381,0.04983 -2e-4,0.01406 0.04124,0.07229 0.09241,0.129561 0.07613,0.08517 0.08329,0.121231 0.03954,0.198283 -0.132034,0.232719 -0.6408263,0.332068 -1.2681833,0.247623 -0.747824,-0.100645 -2.352546,-0.43078 -2.937165,-0.604237 -1.8922261,-0.561448 -2.3637281,-0.660062 -2.8413341,-0.594317 -0.43865,0.06039 -0.6567149,0.203528 -1.1048779,0.725235 -0.360523,0.419695 -0.743746,0.788397 -0.85879201,1.07006 -0.76280304,0.624053 -0.48670204,0.771166 -1.51511804,1.407387 0.513934,0.211282 -0.08383,0.07067 0.379551,0.380805 1.12561004,0.787279 0.635669,0.434581 0.160309,2.429066 -0.633535,0.740712 0.17413,0.923376 -1.54700895,1.134793 -0.0866,-0.218287 0.08034,-1.625745 0.2477649,-2.269044 -1.1773599,-0.177859 -1.7828249,-0.183512 -2.5912569,-0.301737 -0.660985,0.05529 -0.541097,-0.241638 -1.606942,-0.566388 -0.0072,-1.183667 0.02756,-1.187129 0.563691,-2.891594 -0.340411,0.756217 -0.840111,1.646922 -0.921263,2.57803 -0.0331,0.380061 0.544688,0.884962 1.672053,1.120364 -1.225188,0.489376 -2.6814305,0.540333 -3.1261685,0.591964 -1.136582,0.134928 0.05645,0.289346 -3.2958001,-0.535899 -2.321995,-0.571602 -3.028552,-0.711995 -3.985108,-0.791823 -0.811692,-0.06772 -1.425511,0.04786 -3.529776,0.665001 -0.546024,0.160137 -1.148312,0.32432 -1.33841,0.364856 -0.31957,0.06817 -0.37091,0.09643 -0.680988,0.375187 -1.215392,1.092622 -4.43685,2.455895 -7.931581,3.356511 l -0.616716,0.158939 -0.98981,0.85374 c -0.5444,0.469552 -1.28494,1.1097 -1.64563,1.422532 -0.71558,0.620609 -0.82858,0.690077 -1.3335,0.819813 -0.33036,0.0849 -1.09633,0.134355 -1.23292,0.07971 z"
           id="path831-5-6"
           inkscape:connector-curvature="0"
           sodipodi:nodetypes="cccccccccscsssssccsscsccccsccccccsccsssccccccccccsccsscccccccscc" />
        <path
           inkscape:export-ydpi="141"
           inkscape:export-xdpi="141"
           style="fill:#2a1945;fill-opacity:0.983539;stroke-width:0.050578"
           d="m -37.348929,50.563852 c -0.32993,-0.132671 -0.46626,-0.222686 -0.52695,-0.34796 -0.0612,-0.126381 -0.0603,-0.161832 0.007,-0.284799 0.13609,-0.247128 0.61153,-0.498507 1.38128,-0.730311 0.57889,-0.174337 0.96706,-0.573308 2.35042,-2.415837 0.76988,-1.025412 0.93138,-1.176201 1.50199,-1.402382 3.8984,-1.999114 3.38946,-2.187323 5.121855,-3.516475 0.429136,-0.427574 0.541441,-0.651318 0.715994,-0.92514 0.59381,-0.931483 1.345855,-1.897334 1.81794,-2.334759 0.14018,-0.129895 0.241055,-0.250736 0.224163,-0.268534 -0.04571,-0.04816 -1.813839,0.12947 -1.875994,0.188464 -0.02935,0.02788 -0.100082,0.05019 -0.157108,0.0496 -0.05704,-5.01e-4 -0.148733,0.03116 -0.203781,0.07058 -0.05506,0.03942 -0.162642,0.07004 -0.239116,0.06804 -0.07647,-0.002 -0.153694,0.01876 -0.171602,0.04612 -0.01786,0.02737 -0.08463,0.04838 -0.148218,0.04674 -0.06358,-0.0015 -0.187459,0.0305 -0.275228,0.07145 -0.08773,0.04097 -0.269027,0.09138 -0.402809,0.11205 -0.133783,0.02068 -0.415076,0.07926 -0.625116,0.130205 -0.91858,0.222817 -1.60193,0.290074 -2.6631,0.262104 -0.94802,-0.02499 -1.04258,-0.03621 -1.51317,-0.17949 -0.97434,-0.296682 -2.22801,-0.89746 -3.38565,-1.62246 -0.67706,-0.424027 -1.28029,-0.856627 -1.27871,-0.917014 0.002,-0.07792 0.12089,-0.0453 0.55411,0.152055 1.46155,0.665794 2.86118,1.237579 3.97836,1.625272 0.87552,0.303828 1.38491,0.362299 2.21382,0.254108 0.96365,-0.125776 2.3073,-0.489613 3.68335,-0.997384 0.347313,-0.128157 0.678708,-0.231781 0.736434,-0.230275 0.05771,0.0015 0.163995,-0.04124 0.23615,-0.09503 0.07216,-0.05378 0.195042,-0.0961 0.273077,-0.09406 0.07801,0.002 0.154776,-0.01601 0.170538,-0.04006 0.03617,-0.05524 0.500073,-0.1954 0.635076,-0.191878 0.05573,0.0015 0.115934,-0.01973 0.133842,-0.04709 0.01786,-0.02737 0.09814,-0.04804 0.178284,-0.04594 0.08018,0.002 0.160377,-0.01858 0.178285,-0.04594 0.01796,-0.02735 0.08243,-0.04878 0.143364,-0.0476 0.06093,0.0012 0.21413,-0.03151 0.340429,-0.07264 0.341575,-0.11127 1.275899,-0.08622 1.847809,0.04955 l 0.4549,0.107988 0.86391,-0.235583 c 1.725344,-0.470502 2.641265,-0.640573 4.21748,-0.783119 3.912324,-0.353813 5.271547,-0.515352 6.335057,-0.75291 0.6065221,-0.135476 0.8916571,-0.234435 1.9492981,-0.676527 2.1939735,-0.917081 2.6904355,-1.033223 4.6876605,-1.096634 0.817647,-0.02596 1.248171,-0.01476 1.938337,0.05046 l 0.8872229,0.08383 0.89258505,-0.229207 C 1.6885586,32.829338 2.5023495,32.729476 3.7544025,32.824403 l 0.6943121,0.05264 0.0042,-0.159904 c 0.003,-0.116505 -0.04957,-0.221391 -0.1939141,-0.386395 -0.173968,-0.198909 -0.188839,-0.23527 -0.122087,-0.298621 0.110056,-0.104464 0.4377331,-0.13444 0.7439161,-0.06805 0.409883,0.08887 0.77318,0.291838 1.087243,0.607491 0.16978,0.170618 0.33174,0.289011 0.397727,0.290734 0.21258,0.0056 0.889424,0.182827 1.393769,0.365056 0.74156,0.267962 0.950941,0.423168 1.329287,0.985509 0.7153723,1.063276 0.6640293,1.0153 1.6480404,1.540046 0.486677,0.259531 1.056096,0.54831 1.265347,0.641729 0.67975,0.30345 0.730285,0.484703 0.265278,0.951359 -0.316896,0.318037 -0.581347,0.444396 -1.003763,0.479659 -0.174302,0.01456 -0.317244,0.0391 -0.317651,0.05458 -5.01e-4,0.01543 0.04536,0.07988 0.101793,0.143134 0.08385,0.09406 0.09175,0.133919 0.04335,0.2189 -0.146082,0.256632 -0.707768,0.365478 -1.4000361,0.271303 -0.8251833,-0.112252 -2.5957303,-0.479116 -3.2406803,-0.671477 -2.0875031,-0.6226 -2.6077201,-0.732184 -3.1349351,-0.660359 -0.484221,0.06596 -0.72511,0.22359 -1.2205419,0.798676 -0.398562,0.462634 -0.747656,0.794747 -0.875075,1.105433 -1.14095405,1.281624 -1.05740605,0.586606 -1.82281005,1.956507 l 2.97836795,0.207908 0.272252,0.182734 c 0.149739,0.100507 0.66195,0.586313 1.138242,1.079568 l 0.8659961,0.896838 c 0.607096,1.038315 0.234757,1.213376 0.02544,1.599095 -0.4030151,0.742614 -0.6992241,-0.245209 -1.1117981,-0.755587 -0.130633,-0.3308 -0.539326,-0.687746 -2.0938489,-1.657529 -0.75219301,0.156795 -1.53549005,0.0537 -2.7198281,0.15105 -0.7295899,0.05997 -2.0840059,0.399158 -2.5911219,0.114351 -0.0058,-1.30638 0.0424,-1.944692 0.48762,-3.453662 -0.517771,1.145876 -0.59937,1.852718 -0.671249,3.080521 -0.68372,0.241878 -1.399669,0.594362 -1.890588,0.650645 -1.2546145,0.147108 -2.0280475,0.316456 -5.7265256,-0.59958 -2.561795,-0.634485 -3.34137,-0.790532 -4.396963,-0.88014 -0.895732,-0.07604 -1.573359,0.05063 -3.89671,0.728412 -0.602881,0.175874 -1.26785,0.356134 -1.477718,0.400574 -0.352805,0.0747 -0.409518,0.105847 -0.752173,0.413017 -1.343089,1.203979 -4.900625,2.70352 -8.759025,3.692035 l -0.6809,0.174446 -1.09375,0.940684 c -0.60157,0.517378 -1.41986,1.22272 -1.81845,1.567416 -0.79071,0.683825 -0.91553,0.760322 -1.473,0.902713 -0.36474,0.09316 -1.21019,0.146595 -1.36085,0.08602 z"
           id="path831-6-3"
           inkscape:connector-curvature="0"
           sodipodi:nodetypes="ccccccccccsccscscccccssssscssscscscccscsssssccsscsccccsccccccsccssscccccscsccsccccsscccccccscc" />
      </g>
      <path
         d="m -27.875441,5.5589103 c -1.718688,-0.018111 -3.491529,0.4832139 -4.894791,1.255739 -1.795295,0.9883404 -2.892232,2.245016 -4.105693,3.8576457 -1.213458,1.612638 -2.01962,4.166762 -2.301668,5.747451 -0.290527,1.628212 -0.217744,3.989613 0.170016,5.511292 0.584235,2.292782 2.294249,4.54088 3.992004,5.248259 h 5.16e-4 c 0.972907,0.405541 0.957411,-0.293512 -0.04599,-1.039214 -1.877987,-1.776079 -2.403029,-3.002632 -2.639632,-5.360911 -0.21478,-2.140751 0.105274,-4.505528 0.927076,-6.542238 2.734438,-6.7768601 8.037915,-9.2614537 12.316043,-5.8063632 0.600719,0.4851506 1.67531,0.3491309 1.740979,0.3431328 0.297015,-0.024532 9.62e-4,-0.704977 -0.588594,-1.3534072 -1.186977,-1.3054938 -2.851575,-1.8432727 -4.570264,-1.8613861 z M -23.6912,18.960678 c -1.116951,3.351413 -4.57669,6.5567 -7.390246,7.204728 -1.662208,0.436801 -1.782146,0.660435 -0.33073,0.947746 0.671168,0.1329 1.049124,0.09279 1.574065,0.03669 2.73625,-0.410069 5.624481,-2.494899 6.938077,-5.664771 0.378944,-0.914442 0.65789,-1.750729 0.826306,-2.43241 -0.436416,0.01672 -0.936558,-4.36e-4 -1.617472,-0.09198 z"
         style="font-style:normal;font-weight:normal;font-size:10.5833px;line-height:1.25;font-family:sans-serif;white-space:pre;shape-inside:url(#rect913-5);fill:#d80b1e;fill-opacity:1;stroke:#d80b1e;stroke-width:0.668999;stroke-linecap:square;stroke-linejoin:miter;stroke-miterlimit:4;stroke-dasharray:none;stroke-opacity:1;paint-order:markers fill stroke"
         id="path841-8-0" />
    </g>
  </g>
</svg>
