<?xml version="1.0" encoding="UTF-8" standalone="no"?>
<svg
   xmlns:dc="http://purl.org/dc/elements/1.1/"
   xmlns:cc="http://creativecommons.org/ns#"
   xmlns:rdf="http://www.w3.org/1999/02/22-rdf-syntax-ns#"
   xmlns:svg="http://www.w3.org/2000/svg"
   xmlns="http://www.w3.org/2000/svg"
   xmlns:sodipodi="http://sodipodi.sourceforge.net/DTD/sodipodi-0.dtd"
   xmlns:inkscape="http://www.inkscape.org/namespaces/inkscape"
   sodipodi:docname="Rocko-Pet_Logo_favicon_V1.svg"
   inkscape:version="1.0 (4035a4fb49, 2020-05-01)"
   id="svg8"
   version="1.1"
   viewBox="0 0 78.077377 78.077377"
   height="78.077377mm"
   width="78.077377mm">
  <defs
     id="defs2" />
  <sodipodi:namedview
     inkscape:window-maximized="1"
     inkscape:window-y="-9"
     inkscape:window-x="1591"
     inkscape:window-height="1001"
     inkscape:window-width="1920"
     showgrid="false"
     inkscape:document-rotation="0"
     inkscape:current-layer="layer1"
     inkscape:document-units="mm"
     inkscape:cy="140.05764"
     inkscape:cx="9.3034132"
     inkscape:zoom="0.7"
     inkscape:pageshadow="2"
     inkscape:pageopacity="0.0"
     borderopacity="1.0"
     bordercolor="#666666"
     pagecolor="#ffffff"
     id="base" />
  <metadata
     id="metadata5">
    <rdf:RDF>
      <cc:Work
         rdf:about="">
        <dc:format>image/svg+xml</dc:format>
        <dc:type
           rdf:resource="http://purl.org/dc/dcmitype/StillImage" />
        <dc:title></dc:title>
      </cc:Work>
    </rdf:RDF>
  </metadata>
  <g
     transform="translate(-56.967266,-115.17559)"
     id="layer1"
     inkscape:groupmode="layer"
     inkscape:label="Layer 1">
    <rect
       y="115.17559"
       x="56.967266"
       height="78.077377"
       width="78.077377"
       id="rect841"
       style="fill:#ffffff;stroke-width:1.91115;stroke-linejoin:round;fill-opacity:0" />
    <path
       inkscape:export-ydpi="141"
       inkscape:export-xdpi="141"
       sodipodi:nodetypes="ccsccscscszzcsscsssccs"
       style="font-style:normal;font-weight:normal;font-size:10.5833px;line-height:1.25;font-family:sans-serif;white-space:pre;shape-inside:url(#rect913-5);fill:#d80b1e;fill-opacity:1;stroke:#d80b1e;stroke-width:1.71064;stroke-linecap:square;stroke-linejoin:miter;stroke-miterlimit:4;stroke-dasharray:none;stroke-opacity:1;paint-order:markers fill stroke"
       d="m 93.632609,181.5325 c -3.71126,-0.73468 -3.40455,-1.30673 0.84574,-2.42364 7.334411,-1.68931 16.391501,-10.17396 19.062101,-18.92296 4.00349,-13.11557 0.41746,-17.02821 3.28314,-19.82916 2.13306,1.96384 2.44101,12.64447 0.94238,19.46718 -0.36205,1.88586 -1.18846,4.47118 -2.3677,7.31697 -3.35891,8.10538 -10.74322,13.43682 -17.739781,14.48536 -1.34228,0.14354 -2.30969,0.24617 -4.02588,-0.0938 z m -9.21357,0.16936 c -4.34114,-1.80874 -8.71389,-7.5577 -10.20777,-13.42036 -0.99153,-3.89092 -1.17792,-9.92867 -0.43499,-14.09202 0.72117,-4.04186 2.78257,-10.57312 5.88533,-14.69668 3.10281,-4.12349 5.90875,-7.33573 10.4993,-9.86294 7.17632,-3.9507 18.131811,-5.12827 24.202081,1.54806 1.50747,1.65804 2.26385,3.398 1.50439,3.46071 -0.1681,0.0157 -2.91507,0.36337 -4.4511,-0.87719 -10.93918,-8.83468 -24.500571,-2.48197 -31.492541,14.8465 -2.10138,5.20788 -2.92008,11.25445 -2.37091,16.72833 0.60501,6.03014 1.94854,9.1667 6.75055,13.70815 2.56568,1.90677 2.60427,3.69439 0.11648,2.65741 z"
       id="path841-8-7-4-0"
       inkscape:connector-curvature="0" />
  </g>
</svg>
